# xmcd
#
# Track frame offsets: 
#        150
#        13427
#        25120
#        37549
#        47841
#        59469
#        70665
#        83634
#        95453
#        107554
#        121489
#        133146
#        147625
#        162350
#        175027
#        188886
#        200816
#        212099
#        224196
#        236014
#        248193
#        260851
#        274478
#        285790
#
# Disc length: 3971 seconds
#
# Revision: 5
# Processed by: cddbd v1.5.2PL0 Copyright (c) Steve Scherf et al.
# Submitted via: ExactAudioCopy v0.95b3
#
DISCID=740f8118
DTITLE=Johnny Otis  - The Ultimate Jazz Archive 15
DYEAR=2005
DGENRE=Blues
TTITLE0=I Gotta Guy
TTITLE1=Mean Ole Gal
TTITLE2=Thursday Night Blues
TTITLE3=Good Ole Blues
TTITLE4=Boogie Guitar (Three Guitars)
TTITLE5=Ain't Nothing Shakin'
TTITLE6=Hangover Blues
TTITLE7=Get Together Blues
TTITLE8=I'm Not Falling In Love With You
TTITLE9=If It's So, Baby
TTITLE10=Our Romance Is Gone
TTITLE11=If I Didn't Love You So
TTITLE12=Rain In My Eyes
TTITLE13=Double Crossing Blues
TTITLE14=Head Hunter
TTITLE15=Going To See My Baby
TTITLE16=The Little Red Hen
TTITLE17=New Orleans Shuffle
TTITLE18=The Turkey Hop - Part I
TTITLE19=The Turkey Hop - Part II
TTITLE20=Blues Nocturne
TTITLE21=Cry Baby
TTITLE22=Lover's Lane Boogie
TTITLE23=I Found Out My Troubles
EXTD=YEAR: 2005
EXTT0=
EXTT1=
EXTT2=
EXTT3=
EXTT4=
EXTT5=
EXTT6=
EXTT7=
EXTT8=
EXTT9=
EXTT10=
EXTT11=
EXTT12=
EXTT13=
EXTT14=
EXTT15=
EXTT16=
EXTT17=
EXTT18=
EXTT19=
EXTT20=
EXTT21=
EXTT22=
EXTT23=
PLAYORDER=
